<svg width="37" height="37" viewBox="0 0 37 37" fill="none" xmlns="http://www.w3.org/2000/svg">
    <path d="M23.8958 16.9583C25.173 16.9583 26.2083 15.923 26.2083 14.6458C26.2083 13.3687 25.173 12.3333 23.8958 12.3333C22.6187 12.3333 21.5833 13.3687 21.5833 14.6458C21.5833 15.923 22.6187 16.9583 23.8958 16.9583Z" fill="black"/>
    <path d="M13.1042 16.9583C14.3813 16.9583 15.4167 15.923 15.4167 14.6458C15.4167 13.3687 14.3813 12.3333 13.1042 12.3333C11.827 12.3333 10.7917 13.3687 10.7917 14.6458C10.7917 15.923 11.827 16.9583 13.1042 16.9583Z" fill="black"/>
    <path d="M18.4846 3.08334C9.97459 3.08334 3.08334 9.99001 3.08334 18.5C3.08334 27.01 9.97459 33.9167 18.4846 33.9167C27.01 33.9167 33.9167 27.01 33.9167 18.5C33.9167 9.99001 27.01 3.08334 18.4846 3.08334ZM18.5 30.8333C11.6858 30.8333 6.16668 25.3142 6.16668 18.5C6.16668 11.6858 11.6858 6.16668 18.5 6.16668C25.3142 6.16668 30.8333 11.6858 30.8333 18.5C30.8333 25.3142 25.3142 30.8333 18.5 30.8333ZM18.5 26.9792C21.4346 26.9792 24.0194 25.4872 25.5397 23.2178C26.0342 22.4797 25.4343 21.5833 24.5459 21.5833C24.0958 21.5833 23.6877 21.8293 23.4182 22.1898C22.2988 23.6877 20.5203 24.6667 18.5 24.6667C16.4776 24.6667 14.7095 23.6856 13.5823 22.185C13.3131 21.8266 12.9061 21.5833 12.4579 21.5833C11.5677 21.5833 10.9666 22.4815 11.4624 23.2209C12.983 25.4886 15.5668 26.9792 18.5 26.9792Z" fill="black"/>
</svg>