<svg width="180" height="180" viewBox="0 0 180 180" fill="none" xmlns="http://www.w3.org/2000/svg">
<circle cx="90" cy="90" r="90" fill="#D9D9D9"/>
<path d="M49.3409 77.7273V101H46.1136L34.2841 83.9318H34.0682V101H30.5568V77.7273H33.8068L45.6477 94.8182H45.8636V77.7273H49.3409ZM74.679 89.3636C74.679 91.8485 74.2244 93.9848 73.3153 95.7727C72.4063 97.553 71.16 98.9242 69.5767 99.8864C68.0009 100.841 66.2093 101.318 64.2017 101.318C62.1866 101.318 60.3873 100.841 58.804 99.8864C57.2282 98.9242 55.9858 97.5492 55.0767 95.7614C54.1676 93.9735 53.7131 91.8409 53.7131 89.3636C53.7131 86.8788 54.1676 84.7462 55.0767 82.9659C55.9858 81.178 57.2282 79.8068 58.804 78.8523C60.3873 77.8902 62.1866 77.4091 64.2017 77.4091C66.2093 77.4091 68.0009 77.8902 69.5767 78.8523C71.16 79.8068 72.4063 81.178 73.3153 82.9659C74.2244 84.7462 74.679 86.8788 74.679 89.3636ZM71.2017 89.3636C71.2017 87.4697 70.8949 85.875 70.2812 84.5795C69.6752 83.2765 68.8419 82.2917 67.7812 81.625C66.7282 80.9508 65.535 80.6136 64.2017 80.6136C62.8608 80.6136 61.6638 80.9508 60.6108 81.625C59.5578 82.2917 58.7244 83.2765 58.1108 84.5795C57.5047 85.875 57.2017 87.4697 57.2017 89.3636C57.2017 91.2576 57.5047 92.8561 58.1108 94.1591C58.7244 95.4545 59.5578 96.4394 60.6108 97.1136C61.6638 97.7803 62.8608 98.1136 64.2017 98.1136C65.535 98.1136 66.7282 97.7803 67.7812 97.1136C68.8419 96.4394 69.6752 95.4545 70.2812 94.1591C70.8949 92.8561 71.2017 91.2576 71.2017 89.3636ZM100.219 83.8409C100.098 82.7652 99.5975 81.9318 98.7188 81.3409C97.84 80.7424 96.7339 80.4432 95.4006 80.4432C94.446 80.4432 93.6203 80.5947 92.9233 80.8977C92.2263 81.1932 91.6847 81.6023 91.2983 82.125C90.9195 82.6402 90.7301 83.2273 90.7301 83.8864C90.7301 84.4394 90.8589 84.9167 91.1165 85.3182C91.3816 85.7197 91.7263 86.0568 92.1506 86.3295C92.5824 86.5947 93.0445 86.8182 93.5369 87C94.0294 87.1742 94.5028 87.3182 94.9574 87.4318L97.2301 88.0227C97.9725 88.2045 98.7339 88.4508 99.5142 88.7614C100.295 89.072 101.018 89.4811 101.685 89.9886C102.351 90.4962 102.889 91.125 103.298 91.875C103.715 92.625 103.923 93.5227 103.923 94.5682C103.923 95.8864 103.582 97.0568 102.901 98.0795C102.226 99.1023 101.245 99.9091 99.9574 100.5C98.6771 101.091 97.1278 101.386 95.3097 101.386C93.5672 101.386 92.0597 101.11 90.7869 100.557C89.5142 100.004 88.518 99.2197 87.7983 98.2045C87.0786 97.1818 86.6809 95.9697 86.6051 94.5682H90.1278C90.196 95.4091 90.4688 96.1098 90.946 96.6705C91.4309 97.2235 92.0483 97.6364 92.7983 97.9091C93.5559 98.1742 94.3854 98.3068 95.2869 98.3068C96.2794 98.3068 97.1619 98.1515 97.9347 97.8409C98.715 97.5227 99.3286 97.0833 99.7756 96.5227C100.223 95.9545 100.446 95.2917 100.446 94.5341C100.446 93.8447 100.249 93.2803 99.8551 92.8409C99.4688 92.4015 98.9422 92.0379 98.2756 91.75C97.6165 91.4621 96.8703 91.2083 96.0369 90.9886L93.2869 90.2386C91.4233 89.7311 89.946 88.9848 88.8551 88C87.7718 87.0152 87.2301 85.7121 87.2301 84.0909C87.2301 82.75 87.5938 81.5795 88.321 80.5795C89.0483 79.5795 90.0331 78.803 91.2756 78.25C92.518 77.6894 93.9195 77.4091 95.4801 77.4091C97.0559 77.4091 98.446 77.6856 99.6506 78.2386C100.863 78.7917 101.817 79.553 102.514 80.5227C103.211 81.4848 103.575 82.5909 103.605 83.8409H100.219ZM110.153 77.7273L116.631 96.6818H116.892L123.369 77.7273H127.165L118.79 101H114.733L106.358 77.7273H110.153ZM145.119 85.0795C144.9 84.3902 144.604 83.7727 144.233 83.2273C143.869 82.6742 143.434 82.2045 142.926 81.8182C142.419 81.4242 141.839 81.125 141.188 80.9205C140.544 80.7159 139.835 80.6136 139.062 80.6136C137.752 80.6136 136.57 80.9508 135.517 81.625C134.464 82.2992 133.631 83.2879 133.017 84.5909C132.411 85.8864 132.108 87.4735 132.108 89.3523C132.108 91.2386 132.415 92.8333 133.028 94.1364C133.642 95.4394 134.483 96.428 135.551 97.1023C136.619 97.7765 137.835 98.1136 139.199 98.1136C140.464 98.1136 141.566 97.8561 142.506 97.3409C143.453 96.8258 144.184 96.0985 144.699 95.1591C145.222 94.2121 145.483 93.0985 145.483 91.8182L146.392 91.9886H139.733V89.0909H148.881V91.7386C148.881 93.6932 148.464 95.3902 147.631 96.8295C146.805 98.2614 145.661 99.3674 144.199 100.148C142.744 100.928 141.078 101.318 139.199 101.318C137.093 101.318 135.244 100.833 133.653 99.8636C132.07 98.8939 130.835 97.5189 129.949 95.7386C129.063 93.9508 128.619 91.8295 128.619 89.375C128.619 87.5189 128.877 85.8523 129.392 84.375C129.907 82.8977 130.631 81.6439 131.562 80.6136C132.502 79.5758 133.604 78.7841 134.869 78.2386C136.142 77.6856 137.532 77.4091 139.04 77.4091C140.297 77.4091 141.468 77.5947 142.551 77.9659C143.642 78.3371 144.612 78.8636 145.46 79.5455C146.316 80.2273 147.025 81.0379 147.585 81.9773C148.146 82.9091 148.525 83.9432 148.722 85.0795H145.119Z" fill="#FF0000"/>
</svg>
